<svg width="24" height="24" viewBox="0 0 24 24" fill="none" xmlns="http://www.w3.org/2000/svg">
<path d="M12.0117 9.15474C11.3109 9.15474 10.6547 9.42661 10.1578 9.92349C9.66328 10.4204 9.38906 11.0766 9.38906 11.7774C9.38906 12.4782 9.66328 13.1344 10.1578 13.6313C10.6547 14.1258 11.3109 14.4001 12.0117 14.4001C12.7125 14.4001 13.3687 14.1258 13.8656 13.6313C14.3602 13.1344 14.6344 12.4782 14.6344 11.7774C14.6344 11.0766 14.3602 10.4204 13.8656 9.92349C13.6229 9.67893 13.3341 9.48504 13.0158 9.35307C12.6976 9.2211 12.3562 9.15368 12.0117 9.15474ZM21.675 14.6743L20.1422 13.3641C20.2148 12.9188 20.2523 12.4641 20.2523 12.0118C20.2523 11.5594 20.2148 11.1024 20.1422 10.6594L21.675 9.34927C21.7908 9.25014 21.8737 9.11812 21.9126 8.97075C21.9515 8.82338 21.9447 8.66765 21.893 8.52427L21.8719 8.46333C21.45 7.2837 20.8179 6.19026 20.0062 5.23599L19.9641 5.18677C19.8655 5.07087 19.7341 4.98756 19.5873 4.94782C19.4404 4.90807 19.285 4.91375 19.1414 4.96411L17.2383 5.64146C16.5352 5.06489 15.7523 4.61021 14.9039 4.2938L14.5359 2.30396C14.5082 2.15405 14.4355 2.01615 14.3274 1.90856C14.2194 1.80097 14.0813 1.72879 13.9312 1.70161L13.868 1.68989C12.6492 1.46958 11.3648 1.46958 10.1461 1.68989L10.0828 1.70161C9.9328 1.72879 9.79461 1.80097 9.68661 1.90856C9.5786 2.01615 9.50588 2.15405 9.47812 2.30396L9.10781 4.30317C8.26741 4.6221 7.48451 5.07569 6.78984 5.64614L4.87265 4.96411C4.72913 4.91335 4.57357 4.90746 4.42662 4.94724C4.27968 4.98701 4.14832 5.07055 4.05 5.18677L4.00781 5.23599C3.19756 6.19128 2.56563 7.28444 2.14218 8.46333L2.12109 8.52427C2.01562 8.81724 2.10234 9.14536 2.33906 9.34927L3.89062 10.6735C3.81796 11.1141 3.78281 11.5641 3.78281 12.0094C3.78281 12.4594 3.81796 12.9094 3.89062 13.3454L2.34375 14.6696C2.22795 14.7687 2.14508 14.9007 2.10615 15.0481C2.06721 15.1955 2.07406 15.3512 2.12578 15.4946L2.14687 15.5555C2.57109 16.7344 3.19687 17.8243 4.0125 18.7829L4.05468 18.8321C4.15325 18.948 4.28461 19.0313 4.43147 19.071C4.57833 19.1108 4.73378 19.1051 4.87734 19.0547L6.79453 18.3727C7.49296 18.9469 8.27109 19.4016 9.1125 19.7157L9.48281 21.7149C9.51057 21.8648 9.58329 22.0027 9.69129 22.1103C9.7993 22.2179 9.93749 22.2901 10.0875 22.3172L10.1508 22.329C11.3815 22.5505 12.6419 22.5505 13.8727 22.329L13.9359 22.3172C14.0859 22.2901 14.2241 22.2179 14.3321 22.1103C14.4401 22.0027 14.5129 21.8648 14.5406 21.7149L14.9086 19.725C15.757 19.4063 16.5398 18.954 17.243 18.3774L19.1461 19.0547C19.2896 19.1055 19.4452 19.1114 19.5921 19.0716C19.7391 19.0318 19.8704 18.9483 19.9687 18.8321L20.0109 18.7829C20.8266 17.8196 21.4523 16.7344 21.8766 15.5555L21.8976 15.4946C21.9984 15.204 21.9117 14.8782 21.675 14.6743ZM12.0117 15.8977C9.73593 15.8977 7.8914 14.0532 7.8914 11.7774C7.8914 9.50161 9.73593 7.65708 12.0117 7.65708C14.2875 7.65708 16.132 9.50161 16.132 11.7774C16.132 14.0532 14.2875 15.8977 12.0117 15.8977Z" fill="#9AA8C7"/>
</svg>
